<?xml version="1.0" encoding="utf-8"?>
<!-- Generator: Adobe Illustrator 25.2.3, SVG Export Plug-In . SVG Version: 6.00 Build 0)  -->
<svg version="1.1" id="Layer_1" xmlns="http://www.w3.org/2000/svg" xmlns:xlink="http://www.w3.org/1999/xlink" x="0px" y="0px"
	 width="64px" height="64px" viewBox="0 0 64 64" style="enable-background:new 0 0 64 64;" xml:space="preserve">
<style type="text/css">
	.st0{fill:#AF191E;}
</style>
<path class="st0" d="M60.2,0H3.5C1.4,0,0,1.5,0,3.5v57c0,2,1.4,3.5,3.5,3.5h30.4V39.3h-8.1v-9.6h8.4v-7.3c0-8.1,4.9-12.8,12.5-12.8
	c2.6,0,4.9,0.3,7.5,0.3v8.7h-5.2c-4.1,0-4.6,2-4.6,4.7v6.1h9.6L52.7,39h-8.4v25h16.2c2,0,3.5-1.5,3.5-3.5l0,0v-57
	C63.7,1.5,62.3,0,60.2,0L60.2,0z"/>
</svg>
