<?xml version="1.0" encoding="utf-8"?>
<!-- Generator: Adobe Illustrator 24.0.3, SVG Export Plug-In . SVG Version: 6.00 Build 0)  -->
<svg version="1.1" id="Layer_1" xmlns="http://www.w3.org/2000/svg" xmlns:xlink="http://www.w3.org/1999/xlink" x="0px" y="0px"
	 viewBox="0 0 100 100" style="enable-background:new 0 0 100 100;" xml:space="preserve">
<style type="text/css">
	.st0{fill:#DC0201;}
	.st1{fill:#FECD17;}
</style>
<g id="XMLID_101_">
	<path id="XMLID_104_" d="M50,0C28.27,0,9.74,13.94,2.86,33.33h94.28C90.26,13.94,71.73,0,50,0z"/>
	<path id="XMLID_103_" class="st0" d="M100,50c0-5.84-1.01-11.45-2.86-16.67H2.86C1.01,38.55,0,44.16,0,50
		c0,5.84,1.01,11.45,2.86,16.67h94.28C98.99,61.45,100,55.84,100,50z"/>
	<path id="XMLID_102_" class="st1" d="M2.86,66.67C9.74,86.07,28.27,100,50,100c21.73,0,40.26-13.93,47.14-33.33H2.86z"/>
</g>
</svg>
