<?xml version="1.0" encoding="utf-8"?>
<!-- Generator: Adobe Illustrator 25.2.3, SVG Export Plug-In . SVG Version: 6.00 Build 0)  -->
<svg version="1.1" id="Layer_1" xmlns="http://www.w3.org/2000/svg" xmlns:xlink="http://www.w3.org/1999/xlink" x="0px" y="0px"
	 width="64px" height="64px" viewBox="0 0 64 64" style="enable-background:new 0 0 64 64;" xml:space="preserve">
<style type="text/css">
	.st0{fill:#AF191E;}
</style>
<g>
	<path class="st0" d="M32,0c-8.7,0-9.9,0-13.1,0.3c-3.5,0.3-5.8,0.6-7.9,1.5S7.3,3.5,5.2,5.2C3.5,7,2.3,8.7,1.5,10.8
		c-0.6,2.3-1.2,4.7-1.2,8.1C0,22.1,0,23.3,0,32s0,9.9,0.3,13.1c0.3,3.5,0.6,5.8,1.5,7.9s2,3.8,3.8,5.5s3.5,2.9,5.5,3.8
		c2,0.9,4.4,1.5,7.9,1.5C22.1,64,23.3,64,32,64s9.9,0,13.1-0.3c3.5-0.3,5.8-0.6,7.9-1.5c2-0.9,3.8-2,5.5-3.8
		c1.7-1.7,2.9-3.5,3.8-5.5c0.9-2,1.5-4.4,1.5-7.9C64,41.9,64,40.7,64,32s0-9.9-0.3-13.1c-0.3-3.5-0.6-5.8-1.5-7.9
		c-0.9-2-2-3.8-3.8-5.5c-1.7-1.7-3.5-2.9-5.5-3.8c-2-0.9-4.4-1.5-7.9-1.5C41.9,0,40.7,0,32,0L32,0z M29.1,5.8c0.9,0,1.7,0,2.9,0
		c8.4,0,9.6,0,12.8,0.3c3.2,0,4.9,0.6,5.8,1.2c1.5,0.6,2.6,1.2,3.8,2.3c1.2,1.2,1.7,2.3,2.3,3.8c0.6,1.2,0.9,2.9,1.2,5.8
		c0.3,3.2,0.3,4.4,0.3,12.8s0,9.6-0.3,12.8c0,3.2-0.6,4.9-1.2,5.8c-0.6,1.5-1.2,2.6-2.3,3.8s-2.3,1.7-3.8,2.3
		c-1.2,0.6-2.9,0.9-5.8,1.2c-3.2,0.3-4.4,0.3-12.8,0.3s-9.6,0-12.8-0.3c-3.2,0-4.9-0.6-5.8-1.2c-1.5-0.6-2.6-1.2-3.8-2.3
		s-1.7-2.3-2.3-3.8c-0.6-1.2-0.9-2.9-1.2-5.8C5.8,41.6,5.8,40.4,5.8,32s0-9.6,0-12.8s0.6-4.9,1.2-5.8c0.6-1.7,1.5-2.9,2.3-4.1
		c1.2-0.9,2.3-1.7,3.8-2.3c1.2-0.6,2.9-0.9,5.8-1.2C22.1,5.8,23.3,5.8,29.1,5.8L29.1,5.8z M49.2,11.1c-2,0-3.8,1.7-3.8,3.8
		s1.7,3.8,3.8,3.8s3.8-1.7,3.8-3.8S51.2,11.1,49.2,11.1L49.2,11.1z M32,15.7c-9,0-16.3,7.3-16.3,16.3S23,48.3,32,48.3
		S48.3,41,48.3,32S41,15.7,32,15.7L32,15.7z M32,21.2c5.8,0,10.8,4.7,10.8,10.8c0,5.8-4.7,10.8-10.8,10.8c-5.8,0-10.8-4.7-10.8-10.8
		C21.2,26.2,26.2,21.2,32,21.2z"/>
</g>
</svg>
