<?xml version="1.0" encoding="utf-8"?>
<!-- Generator: Adobe Illustrator 25.2.3, SVG Export Plug-In . SVG Version: 6.00 Build 0)  -->
<svg version="1.1" id="Layer_1" xmlns="http://www.w3.org/2000/svg" xmlns:xlink="http://www.w3.org/1999/xlink" x="0px" y="0px"
	 width="64px" height="64px" viewBox="0 0 64 64" style="enable-background:new 0 0 64 64;" xml:space="preserve">
<style type="text/css">
	.st0{fill:#AF191E;}
	.st1{fill:#FFFFFF;}
</style>
<g>
	<circle class="st0" cx="32" cy="32" r="32"/>
	<path class="st1" d="M40.9,14.4c0.5,0,0.9,0,1.4,0c0.1,0,0.1,0.1,0.2,0.1c3.8,0.5,6.4,4.3,5.5,8.1c-1.2,4.8-6.9,6.7-10.7,3.5
		c-0.2-0.2-0.3-0.2-0.5-0.1c-0.8,0.4-1.5,0.8-2.3,1.2c-2.7,1.4-5.3,2.7-8,4.1c-0.2,0.1-0.3,0.2-0.3,0.5c0,0.2,0,0.5,0,0.7
		c-0.1,0.3,0,0.4,0.3,0.5c3.4,1.7,6.8,3.4,10.2,5.1c0.3,0.2,0.5,0.1,0.8-0.1c2.1-1.8,5.1-2,7.5-0.6c2.4,1.4,3.7,4.1,3.2,6.8
		c-0.5,2.7-2.1,4.5-4.7,5.2c-2.6,0.7-4.9,0-6.7-2c-1.2-1.4-1.8-3-1.6-4.9c0-0.2-0.1-0.3-0.3-0.4c-3.4-1.7-6.8-3.4-10.3-5.1
		c-0.2-0.1-0.4-0.1-0.6,0.1c-3.7,3.3-9.6,1.4-10.8-3.4c-0.1-0.3-0.1-0.6-0.2-0.9c0-0.5,0-0.9,0-1.4c0-0.1,0.1-0.1,0.1-0.2
		c0.4-2.6,1.9-4.4,4.3-5.3c2.5-0.9,4.7-0.4,6.7,1.4c0.2,0.2,0.3,0.2,0.5,0.1c3.3-1.7,6.5-3.4,9.8-5c0.5-0.2,0.8-0.4,0.6-1
		c0-0.1,0-0.1,0-0.2c0-3,2.1-5.6,4.9-6.4C40.3,14.5,40.6,14.5,40.9,14.4z"/>
</g>
</svg>
