<?xml version="1.0" encoding="utf-8"?>
<!-- Generator: Adobe Illustrator 25.2.3, SVG Export Plug-In . SVG Version: 6.00 Build 0)  -->
<svg version="1.1" id="Layer_1" xmlns="http://www.w3.org/2000/svg" xmlns:xlink="http://www.w3.org/1999/xlink" x="0px" y="0px"
	 width="64px" height="64px" viewBox="0 0 64 64" style="enable-background:new 0 0 64 64;" xml:space="preserve">
<style type="text/css">
	.st0{fill:#AF191E;}
</style>
<path class="st0" d="M62.5,18.1c-0.9-2.6-2.9-4.9-5.5-5.5c-4.9-1.5-25-1.5-25-1.5s-20.1,0-25,1.5c-2.6,0.6-4.9,2.9-5.5,5.5
	C0,23,0,33.5,0,33.5S0,44,1.5,48.9c0.9,2.6,2.9,4.9,5.5,5.5c4.9,1.5,25,1.5,25,1.5s20.1,0,25-1.5c2.6-0.9,4.9-2.9,5.5-5.5
	C64,44,64,33.5,64,33.5S64,23,62.5,18.1z M25.6,43.1V23.9l16.6,9.6L25.6,43.1z"/>
</svg>
