<?xml version="1.0" encoding="utf-8"?>
<!-- Generator: Adobe Illustrator 25.2.3, SVG Export Plug-In . SVG Version: 6.00 Build 0)  -->
<svg version="1.1" id="Layer_1" xmlns="http://www.w3.org/2000/svg" xmlns:xlink="http://www.w3.org/1999/xlink" x="0px" y="0px"
	 width="34.9px" height="64px" viewBox="0 0 34.9 64" style="enable-background:new 0 0 34.9 64;" xml:space="preserve">
<style type="text/css">
	.st0{fill:#707070;}
</style>
<g>
	<path class="st0" d="M24.8,51.5c1.6,0.1,2.5,1,2.6,2.5c0.1,1.5-1.1,2.7-2.6,2.7c-1.5,0-2.7-1.3-2.6-2.7
		C22.3,52.4,23.3,51.6,24.8,51.5z"/>
	<path class="st0" d="M24.7,14.7c1.5-0.1,2.8,1.1,2.7,2.6c-0.1,1.5-0.9,2.5-2.5,2.6c-1.5,0.1-2.8-1.1-2.7-2.6
		C22.3,15.8,23.1,14.9,24.7,14.7z"/>
	<path class="st0" d="M32.3,51.4c1.6,0.2,2.5,1,2.6,2.6c0.1,1.4-1.3,2.7-2.7,2.7c-1.5,0-2.6-1.3-2.5-2.8
		C29.8,52.3,30.8,51.6,32.3,51.4z"/>
	<path class="st0" d="M22.2,46.8c-0.1-1.4,1.3-2.9,2.6-2.8c1.5,0.1,2.5,1,2.6,2.6c0,1.5-0.7,2.5-2.4,2.7
		C23.5,49.4,22.2,48.3,22.2,46.8z"/>
	<path class="st0" d="M0,31.8c0.1-1.4,0.9-2.4,2.5-2.4c1.6,0,2.7,1.1,2.6,2.7c-0.1,1.6-1.1,2.4-2.6,2.5C1.1,34.7,0,33.5,0,31.8z"/>
	<path class="st0" d="M29.6,17.3c0-1.5,1.3-2.7,2.8-2.5c1.6,0.2,2.5,1.1,2.4,2.7c0,1.5-1,2.5-2.6,2.5C30.8,20,29.6,18.7,29.6,17.3z"
		/>
	<path class="st0" d="M17.1,19.9c-1.4-0.3-2.4-1.2-2.4-2.7c0-1.4,1.4-2.6,2.8-2.5c1.5,0.1,2.6,1.4,2.4,2.9
		C19.8,19,18.6,20.1,17.1,19.9z"/>
	<path class="st0" d="M29.6,61.3c0-1.5,1.3-2.7,2.8-2.5c1.6,0.1,2.5,1.2,2.4,2.7c0,1.6-1.1,2.4-2.6,2.5
		C30.7,64.1,29.6,62.9,29.6,61.3z"/>
	<path class="st0" d="M25,29.4c1.5,0.1,2.4,1.1,2.4,2.6c0,1.5-1,2.5-2.6,2.6c-1.4,0.1-2.8-1.3-2.6-2.8C22.4,30.4,23.3,29.4,25,29.4z
		"/>
	<path class="st0" d="M32.1,49.3c-1.4-0.1-2.4-0.9-2.4-2.5c-0.1-1.5,1.2-2.8,2.6-2.8c1.4,0,2.8,1.4,2.6,2.8
		C34.7,48.4,33.8,49.2,32.1,49.3z"/>
	<path class="st0" d="M20,47.1c-0.2,1.3-1,2.2-2.6,2.2c-1.5,0-2.8-1.2-2.6-2.7c0.2-1.5,1.1-2.4,2.6-2.5C18.9,43.9,20,45.3,20,47.1z"
		/>
	<path class="st0" d="M24.7,42c-1.4-0.1-2.3-1-2.4-2.5c-0.2-1.4,1.3-2.8,2.7-2.7c1.6,0.1,2.5,1.1,2.5,2.6C27.5,40.8,26.3,42,24.7,42
		z"/>
	<path class="st0" d="M20,39c0,1.8-1.1,3-2.6,2.9c-1.6-0.1-2.5-1-2.6-2.5c-0.1-1.4,1.3-2.8,2.7-2.7C19,36.9,19.9,37.7,20,39z"/>
	<path class="st0" d="M32.2,29.4c1.7,0.1,2.5,1,2.7,2.5c0.1,1.4-1.2,2.7-2.6,2.7c-1.5,0-2.7-1.2-2.6-2.8
		C29.8,30.3,30.7,29.6,32.2,29.4z"/>
	<path class="st0" d="M14.8,31.8c0.2-1.3,0.9-2.3,2.6-2.4c1.5-0.1,2.7,1.1,2.7,2.6c-0.1,1.6-1,2.5-2.5,2.6
		C16,34.8,14.7,33.4,14.8,31.8z"/>
	<path class="st0" d="M7.4,32c0.1-1.5,0.9-2.4,2.5-2.6c1.5-0.1,2.7,1,2.7,2.6c0,1.4-1.3,2.8-2.7,2.6C8.4,34.5,7.5,33.6,7.4,32z"/>
	<path class="st0" d="M24.7,22.1c1.7,0,2.5,1,2.7,2.5c0.2,1.5-1.2,2.8-2.7,2.7c-1.6-0.1-2.6-1-2.5-2.6
		C22.3,23.1,23.1,22.2,24.7,22.1z"/>
	<path class="st0" d="M32.1,12.5c-1.4-0.1-2.4-0.8-2.5-2.4c-0.1-1.5,1.1-2.8,2.6-2.8c1.4,0,2.8,1.4,2.7,2.8
		C34.7,11.6,33.9,12.5,32.1,12.5z"/>
	<path class="st0" d="M24.8,12.5c-1.6,0-2.4-1-2.6-2.5c-0.1-1.4,1.3-2.8,2.7-2.7c1.5,0.1,2.4,1.1,2.6,2.6
		C27.6,11.4,26.3,12.5,24.8,12.5z"/>
	<path class="st0" d="M32.5,42c-1.7,0.1-2.9-1.1-2.9-2.6c0-1.6,1-2.4,2.5-2.6c1.4-0.1,2.8,1.2,2.7,2.6C34.8,40.9,33.9,41.8,32.5,42z
		"/>
	<path class="st0" d="M7.4,39.6c0-1.8,0.9-2.7,2.5-2.9c1.4-0.2,2.8,1.2,2.7,2.7C12.5,41,11.6,42,10,42C8.4,42,7.6,41,7.4,39.6z"/>
	<path class="st0" d="M32.3,27.3c-1.5,0-2.7-1.1-2.7-2.6c0.1-1.6,1-2.4,2.5-2.5c1.5-0.1,2.7,1.2,2.7,2.6
		C34.9,26,33.7,27.2,32.3,27.3z"/>
	<path class="st0" d="M17.2,22.1c1.8,0,2.9,1.2,2.9,2.7c-0.1,1.6-1.1,2.4-2.6,2.5c-1.5,0.1-2.8-1.3-2.6-2.7
		C14.9,23.1,15.8,22.1,17.2,22.1z"/>
	<path class="st0" d="M7.4,24.4c0.1-1.4,0.9-2.3,2.5-2.3c1.6,0,2.5,0.9,2.6,2.5c0.1,1.4-1.2,2.8-2.7,2.7C8.4,27.1,7.4,26.3,7.4,24.4
		z"/>
	<path class="st0" d="M29.6,2.7c0.1-1.7,1-2.5,2.5-2.7c1.4-0.1,2.8,1.3,2.7,2.6c0,1.5-1.3,2.7-2.8,2.6C30.5,5.1,29.8,4.2,29.6,2.7z"
		/>
</g>
</svg>
