<?xml version="1.0" encoding="utf-8"?>
<!-- Generator: Adobe Illustrator 25.2.3, SVG Export Plug-In . SVG Version: 6.00 Build 0)  -->
<svg version="1.1" id="Layer_1" xmlns="http://www.w3.org/2000/svg" xmlns:xlink="http://www.w3.org/1999/xlink" x="0px" y="0px"
	 width="34.9px" height="64px" viewBox="0 0 34.9 64" style="enable-background:new 0 0 34.9 64;" xml:space="preserve">
<style type="text/css">
	.st0{fill:#707070;}
</style>
<g>
	<path class="st0" d="M10.1,12.5c-1.6-0.1-2.5-1-2.6-2.5c-0.1-1.5,1.1-2.7,2.6-2.7c1.5,0,2.7,1.3,2.6,2.7
		C12.6,11.6,11.6,12.4,10.1,12.5z"/>
	<path class="st0" d="M10.2,49.3c-1.5,0.1-2.8-1.1-2.7-2.6c0.1-1.5,0.9-2.5,2.5-2.6c1.5-0.1,2.8,1.1,2.7,2.6
		C12.6,48.2,11.8,49.1,10.2,49.3z"/>
	<path class="st0" d="M2.6,12.6c-1.6-0.2-2.5-1-2.6-2.6c-0.1-1.4,1.3-2.7,2.7-2.7c1.5,0,2.6,1.3,2.5,2.8C5.1,11.7,4.1,12.4,2.6,12.6
		z"/>
	<path class="st0" d="M12.7,17.2c0.1,1.4-1.3,2.9-2.6,2.8c-1.5-0.1-2.5-1-2.6-2.6c0-1.5,0.7-2.5,2.4-2.7
		C11.4,14.6,12.6,15.7,12.7,17.2z"/>
	<path class="st0" d="M34.9,32.2c-0.1,1.4-0.9,2.4-2.5,2.4c-1.6,0-2.7-1.1-2.6-2.7c0.1-1.6,1.1-2.4,2.6-2.5
		C33.8,29.3,34.9,30.5,34.9,32.2z"/>
	<path class="st0" d="M5.3,46.7c0,1.5-1.3,2.7-2.8,2.5C0.9,49.1,0,48.1,0,46.6c0-1.5,1-2.5,2.6-2.5C4.1,44,5.3,45.3,5.3,46.7z"/>
	<path class="st0" d="M17.7,44.1c1.4,0.3,2.4,1.2,2.4,2.7c0,1.4-1.4,2.6-2.8,2.5c-1.5-0.1-2.6-1.4-2.4-2.9
		C15,45,16.3,43.9,17.7,44.1z"/>
	<path class="st0" d="M5.3,2.7c0,1.5-1.3,2.7-2.8,2.5C0.9,5,0,4,0,2.5C0.1,1,1.1,0.1,2.6,0C4.2-0.1,5.3,1.1,5.3,2.7z"/>
	<path class="st0" d="M9.9,34.6c-1.5-0.1-2.4-1.1-2.4-2.6c0-1.5,1-2.5,2.6-2.6c1.4-0.1,2.8,1.3,2.6,2.8
		C12.5,33.6,11.6,34.6,9.9,34.6z"/>
	<path class="st0" d="M2.8,14.7c1.4,0.1,2.4,0.9,2.4,2.5C5.3,18.7,4.1,20,2.6,20c-1.4,0-2.8-1.4-2.6-2.8C0.2,15.6,1.1,14.8,2.8,14.7
		z"/>
	<path class="st0" d="M14.9,16.9c0.2-1.3,1-2.2,2.6-2.2c1.5,0,2.8,1.2,2.6,2.7c-0.2,1.5-1.1,2.4-2.6,2.5
		C16,20.1,14.8,18.7,14.9,16.9z"/>
	<path class="st0" d="M10.2,22c1.4,0.1,2.3,1,2.4,2.5c0.2,1.4-1.3,2.8-2.7,2.7c-1.6-0.1-2.5-1.1-2.5-2.6C7.4,23.2,8.6,22,10.2,22z"
		/>
	<path class="st0" d="M14.9,25c0-1.8,1.1-3,2.6-2.9c1.6,0.1,2.5,1,2.6,2.5c0.1,1.4-1.3,2.8-2.7,2.7C15.9,27.1,15,26.3,14.9,25z"/>
	<path class="st0" d="M2.7,34.6c-1.7-0.1-2.5-1-2.7-2.5c-0.1-1.4,1.2-2.7,2.6-2.7c1.5,0,2.7,1.2,2.6,2.8C5.1,33.7,4.2,34.4,2.7,34.6
		z"/>
	<path class="st0" d="M20.1,32.2c-0.2,1.3-0.9,2.3-2.6,2.4c-1.5,0.1-2.7-1.1-2.7-2.6c0.1-1.6,1-2.5,2.5-2.6
		C18.9,29.2,20.1,30.6,20.1,32.2z"/>
	<path class="st0" d="M27.5,32c-0.1,1.5-0.9,2.4-2.5,2.6c-1.5,0.1-2.7-1-2.7-2.6c0-1.4,1.3-2.8,2.7-2.6C26.5,29.5,27.4,30.4,27.5,32
		z"/>
	<path class="st0" d="M10.2,41.9c-1.7,0-2.5-1-2.7-2.5c-0.2-1.5,1.2-2.8,2.7-2.7c1.6,0.1,2.6,1,2.5,2.6
		C12.6,40.9,11.8,41.8,10.2,41.9z"/>
	<path class="st0" d="M2.8,51.5c1.4,0.1,2.4,0.8,2.5,2.4c0.1,1.5-1.1,2.8-2.6,2.8c-1.4,0-2.8-1.4-2.7-2.8C0.2,52.4,1,51.5,2.8,51.5z
		"/>
	<path class="st0" d="M10.1,51.5c1.6,0,2.4,1,2.6,2.5c0.1,1.4-1.3,2.8-2.7,2.7c-1.5-0.1-2.4-1.1-2.6-2.6
		C7.3,52.6,8.5,51.5,10.1,51.5z"/>
	<path class="st0" d="M2.3,22c1.7-0.1,2.9,1.1,2.9,2.6c0,1.6-1,2.4-2.5,2.6C1.3,27.4-0.1,26,0,24.6C0.1,23.1,1,22.2,2.3,22z"/>
	<path class="st0" d="M27.5,24.4c0,1.8-0.9,2.7-2.5,2.9c-1.4,0.2-2.8-1.2-2.7-2.7c0.1-1.6,1-2.5,2.6-2.5C26.5,22,27.3,23,27.5,24.4z
		"/>
	<path class="st0" d="M2.6,36.7c1.5,0,2.7,1.1,2.7,2.6c-0.1,1.6-1,2.4-2.5,2.5C1.2,42,0,40.8,0,39.3C0,38,1.2,36.8,2.6,36.7z"/>
	<path class="st0" d="M17.7,41.9c-1.8,0-2.9-1.2-2.9-2.7c0.1-1.6,1.1-2.4,2.6-2.5c1.5-0.1,2.8,1.3,2.6,2.7
		C20,40.9,19.1,41.9,17.7,41.9z"/>
	<path class="st0" d="M27.5,39.6c-0.1,1.4-0.9,2.3-2.5,2.3c-1.6,0-2.5-0.9-2.6-2.5c-0.1-1.4,1.2-2.8,2.7-2.7
		C26.5,36.9,27.4,37.7,27.5,39.6z"/>
	<path class="st0" d="M5.3,61.3c-0.1,1.7-1,2.5-2.5,2.7C1.4,64.1,0,62.7,0,61.3c0-1.5,1.3-2.7,2.8-2.6C4.4,58.9,5.1,59.8,5.3,61.3z"
		/>
</g>
</svg>
